HIERARCHY
ROOT root
{
	OFFSET 0.000000 0.000000 0.000000
	CHANNELS 6 Xposition Yposition Zposition Zrotation Yrotation Xrotation
	JOINT lhip
	{
		OFFSET 0.058581 -0.082280 -0.017664
		CHANNELS 3 Zrotation Yrotation Xrotation
		JOINT lknee
		{
			OFFSET 0.043451 -0.386469 0.008037
			CHANNELS 3 Zrotation Yrotation Xrotation
			JOINT lankle
			{
				OFFSET -0.014790 -0.426874 -0.037428
				CHANNELS 3 Zrotation Yrotation Xrotation
				JOINT ltoe
				{
					OFFSET 0.041054 -0.060286 0.122042
					CHANNELS 3 Zrotation Yrotation Xrotation
					End Site
					{
						OFFSET 0.000000 0.000000 0.000000
					}
				}
			}
		}
	}
	JOINT rhip
	{
		OFFSET -0.060310 -0.090513 -0.013543
		CHANNELS 3 Zrotation Yrotation Xrotation
		JOINT rknee
		{
			OFFSET -0.043257 -0.383688 -0.004843
			CHANNELS 3 Zrotation Yrotation Xrotation
			JOINT rankle
			{
				OFFSET 0.019056 -0.420046 -0.034562
				CHANNELS 3 Zrotation Yrotation Xrotation
				JOINT rtoe
				{
					OFFSET -0.034840 -0.062106 0.130323
					CHANNELS 3 Zrotation Yrotation Xrotation
					End Site
					{
						OFFSET 0.000000 0.000000 0.000000
					}
				}
			}
		}
	}
	JOINT lowerback
	{
		OFFSET 0.004439 0.124404 -0.038385
		CHANNELS 3 Zrotation Yrotation Xrotation
		JOINT upperback
		{
			OFFSET 0.004488 0.137956 0.026820
			CHANNELS 3 Zrotation Yrotation Xrotation
			JOINT chest
			{
				OFFSET -0.002265 0.056032 0.002855
				CHANNELS 3 Zrotation Yrotation Xrotation
				JOINT lowerneck
				{
					OFFSET -0.013390 0.211636 -0.033468
					CHANNELS 3 Zrotation Yrotation Xrotation
					JOINT upperneck
					{
						OFFSET 0.010113 0.088937 0.050410
						CHANNELS 3 Zrotation Yrotation Xrotation
						End Site
						{
							OFFSET 0.000000 0.000000 0.000000
						}
					}
				}
				JOINT lclavicle
				{
					OFFSET 0.071702 0.114000 -0.018898
					CHANNELS 3 Zrotation Yrotation Xrotation
					JOINT lshoulder
					{
						OFFSET 0.122921 0.045205 -0.019046
						CHANNELS 3 Zrotation Yrotation Xrotation
						JOINT lelbow
						{
							OFFSET 0.255332 -0.015649 -0.022946
							CHANNELS 3 Zrotation Yrotation Xrotation
							JOINT lwrist
							{
								OFFSET 0.265709 0.012698 -0.007375
								CHANNELS 3 Zrotation Yrotation Xrotation
								End Site
								{
									OFFSET 0.000000 0.000000 0.000000
								}
							}
						}
					}
				}
				JOINT rclavicle
				{
					OFFSET -0.082954 0.112472 -0.023707
					CHANNELS 3 Zrotation Yrotation Xrotation
					JOINT rshoulder
					{
						OFFSET -0.113228 0.046853 -0.008472
						CHANNELS 3 Zrotation Yrotation Xrotation
						JOINT relbow
						{
							OFFSET -0.260127 -0.014369 -0.031269
							CHANNELS 3 Zrotation Yrotation Xrotation
							JOINT rwrist
							{
								OFFSET -0.269108 0.006794 -0.006027
								CHANNELS 3 Zrotation Yrotation Xrotation
								End Site
								{
									OFFSET 0.000000 0.000000 0.000000
								}
							}
						}
					}
				}
			}
		}
	}
}
MOTION
Frames: 11
Frame Time: 0.033333
0.008688 0.253935 0.992448 78.212702 -6.580287 85.979652 -0.466874 4.618732 -7.704157 -5.640896 7.557453 26.230405 0.136156 10.257793 -16.855264 0.000000 -0.000000 0.000000 -11.084424 -1.522824 -21.219712 2.331154 1.753130 36.818498 4.625343 -0.512734 -12.066255 0.000000 -0.000000 0.000000 9.649401 -3.861824 24.166234 3.532941 0.959027 6.159563 1.078255 0.738324 1.269254 -5.277509 9.513241 -25.051679 -8.176134 8.689513 -17.475606 -29.800485 4.013640 -8.271998 -42.681438 -3.579658 -3.764284 66.099394 -45.190799 -58.541439 9.265996 -3.165221 -25.208786 29.064723 1.871159 -7.793808 32.823342 15.834577 -2.778527 -82.710577 34.084414 -76.155803 5.529587 4.960426 -9.315337 
0.008807 0.252838 0.993329 79.124492 -6.365641 85.380554 -0.320014 4.489479 -7.131893 -5.413882 7.043241 26.094316 0.086966 9.887693 -16.680175 0.000000 -0.000000 0.000000 -11.106986 -1.480061 -20.063443 2.142374 0.783218 36.291708 4.394149 -0.434480 -12.059913 0.000000 -0.000000 0.000000 9.607708 -3.891546 24.140886 3.351680 0.632403 6.189428 1.076806 0.721086 1.069375 -5.415689 9.375748 -24.851667 -8.204240 8.783008 -16.908407 -29.575868 2.165048 -7.848780 -43.582940 -5.143131 -2.929444 67.543014 -45.503155 -58.832220 11.138034 -2.966444 -25.316135 28.958490 3.403885 -7.465967 32.905954 16.810858 -2.491681 -83.090882 33.986327 -76.626633 2.998955 5.629071 -10.381233 
0.008030 0.251698 0.993919 79.719699 -6.171539 85.171155 -0.122698 4.294940 -6.964105 -5.164714 7.016495 25.934433 -0.014961 9.423785 -16.519140 0.000000 -0.000000 0.000000 -10.913343 -1.658762 -19.569598 1.937573 0.350707 35.935699 4.278805 -0.256016 -12.113608 0.000000 -0.000000 0.000000 9.486651 -3.617442 23.676124 3.257343 0.340490 6.434569 1.057019 0.663383 0.843564 -5.497663 9.603391 -24.600773 -8.343803 8.787898 -16.126803 -29.677747 0.148616 -7.423043 -44.073522 -6.930597 -2.128121 68.182827 -45.960661 -58.940839 11.904450 -3.632335 -24.784117 28.978042 5.164476 -6.891071 32.804177 18.382742 -2.385271 -83.239551 33.966801 -76.910510 0.623928 6.445323 -9.918258 
0.007124 0.250844 0.994759 80.651800 -5.990452 84.764314 -0.000718 4.138294 -6.663834 -4.847901 6.845430 25.846496 0.007064 8.818753 -16.292074 0.000000 -0.000000 0.000000 -10.797106 -1.921270 -18.758719 1.709164 -0.247802 35.485503 4.175837 -0.306059 -12.019673 0.000000 -0.000000 0.000000 9.349489 -3.346824 23.241942 3.134179 -0.060693 6.617771 1.002051 0.458310 0.673272 -5.601872 9.594963 -24.261254 -8.362567 8.800220 -15.206967 -29.512720 -2.463224 -6.830632 -45.051935 -9.387638 -0.901708 68.379345 -46.793427 -58.539417 14.269718 -4.017741 -24.503303 28.654436 7.374500 -6.339801 33.138653 20.249231 -1.742920 -83.369575 34.471922 -77.381311 -3.100935 7.622169 -10.489912 
0.006764 0.250603 0.995321 81.304309 -5.850609 84.497233 0.058112 3.969498 -6.408675 -4.691707 6.546999 25.564151 -0.053446 8.548989 -16.033573 0.000000 -0.000000 0.000000 -10.726075 -2.022902 -18.148780 1.547291 -0.639902 35.030250 4.163408 -0.409600 -12.030004 0.000000 -0.000000 0.000000 9.304429 -3.283306 22.947379 3.057277 -0.355051 6.627585 0.960500 0.368418 0.636772 -5.763232 9.647862 -24.085897 -8.195509 8.744618 -14.354303 -29.436428 -4.043876 -6.382943 -45.679945 -10.931316 -0.047840 68.158059 -47.376011 -58.076681 15.609023 -4.191273 -24.530017 28.579403 8.651488 -5.993095 33.162090 21.388513 -1.356152 -83.167586 35.251162 -77.326718 -5.625297 8.147283 -10.467864 
0.006210 0.250363 0.996114 82.262519 -5.815087 84.300184 -0.038490 3.926693 -6.236328 -4.510999 6.148403 25.221769 0.023871 8.072686 -15.741794 0.000000 -0.000000 0.000000 -10.780527 -2.413099 -17.649131 1.356117 -1.226617 34.734761 4.316369 -0.603765 -11.792444 0.000000 -0.000000 0.000000 9.119881 -3.198848 22.441830 2.908389 -0.764032 6.660189 0.828113 0.152769 0.413288 -5.883704 9.796062 -23.817760 -7.977725 8.873152 -13.160871 -29.547458 -6.215127 -5.592012 -45.925802 -12.351252 1.127497 68.034896 -48.479685 -58.305391 17.329597 -4.307091 -24.990565 28.547759 10.481545 -5.356595 33.482599 22.772825 -0.664783 -83.133457 35.958715 -77.568331 -7.566388 8.863969 -10.666241 
0.006076 0.250005 0.996838 83.187612 -5.630195 84.016074 0.036291 3.738732 -5.917128 -4.289010 5.809129 24.831973 -0.000157 7.560694 -15.414695 0.000000 -0.000000 0.000000 -10.674163 -2.482422 -16.810612 1.127181 -1.679997 34.030872 4.139740 -0.753613 -11.788374 0.000000 -0.000000 0.000000 8.985010 -3.134795 21.987389 2.791183 -1.178790 6.827263 0.752477 -0.029659 0.119735 -5.971628 9.915798 -23.532640 -7.791812 8.988087 -11.942944 -29.564628 -8.416768 -4.872227 -46.962870 -14.307557 2.114760 67.808628 -48.561832 -57.577690 17.657449 -4.746909 -25.310288 28.364223 12.382260 -4.626281 33.917798 23.963460 0.132767 -82.795428 36.598236 -76.876700 -9.153731 9.550135 -11.106475 
0.006309 0.249663 0.997554 84.017784 -5.526607 83.649013 0.095923 3.394507 -5.362666 -4.194543 5.624681 24.233849 -0.034535 7.218634 -14.989968 0.000000 -0.000000 0.000000 -10.639568 -2.651200 -15.936848 0.964552 -2.081958 33.408034 3.948856 -0.980531 -11.758198 0.000000 -0.000000 0.000000 8.815697 -2.936593 21.544301 2.588477 -1.536341 6.948446 0.593452 -0.146587 0.048754 -6.004863 9.886220 -23.168250 -7.537637 8.871989 -11.078898 -29.752107 -10.375438 -4.411416 -47.701398 -16.515271 3.242320 66.388690 -49.050988 -56.384396 18.943258 -4.932572 -25.371000 28.468364 13.932745 -4.037911 34.323751 24.946707 1.106926 -82.184738 37.768400 -76.402654 -11.602250 10.155223 -11.584155 
0.006745 0.249313 0.998298 84.807908 -5.301520 83.386779 0.228040 3.309286 -4.984968 -3.967919 5.243132 23.778658 -0.055978 6.814648 -14.712607 0.000000 -0.000000 0.000000 -10.477278 -2.822866 -15.165998 0.811079 -2.523646 32.804001 3.867559 -1.146760 -11.572677 0.000000 -0.000000 0.000000 8.680802 -2.736646 20.813043 2.463097 -1.876623 7.317331 0.508417 -0.286004 -0.221874 -6.132224 9.780245 -22.438471 -7.177087 8.817131 -10.221257 -30.038178 -12.575538 -3.558880 -48.198165 -18.055815 4.220515 64.938359 -49.414046 -55.084562 18.923807 -5.184351 -24.839734 28.572928 15.656806 -3.073931 34.645648 25.616883 1.874871 -81.464706 38.967739 -75.787991 -13.055484 10.684053 -12.017659 
0.007790 0.248718 0.999614 85.705971 -5.067642 83.020140 0.274554 3.133912 -4.219296 -3.725940 4.606004 22.838590 -0.084824 6.615674 -14.244651 0.000000 -0.000000 0.000000 -10.288177 -3.020479 -14.061394 0.713037 -2.855051 31.935178 3.792564 -1.504242 -11.311557 0.000000 -0.000000 0.000000 8.303840 -2.458174 20.283121 2.315935 -2.268348 7.403249 0.440870 -0.412156 -0.515330 -6.120009 9.787071 -21.776560 -6.787405 8.675621 -8.935764 -30.445311 -14.956975 -2.653272 -48.572526 -19.713739 5.727372 62.274307 -50.446630 -52.781025 19.340684 -5.757475 -24.979203 29.058090 17.430223 -2.108343 35.094707 25.959753 3.345481 -80.393939 40.955715 -74.786257 -14.771388 11.300448 -12.537581 
0.009616 0.248057 1.000869 86.306126 -4.987339 82.676030 0.156502 3.117325 -3.294105 -3.404049 4.095578 21.747649 -0.101362 6.394307 -13.774442 0.000000 -0.000000 0.000000 -10.176190 -3.201786 -12.967768 0.493383 -3.023496 31.005040 3.791231 -1.615040 -11.079472 0.000000 -0.000000 0.000000 7.859736 -2.124128 19.609399 2.225365 -2.624761 7.781370 0.360143 -0.508919 -0.755770 -6.045123 9.837548 -21.252992 -6.476409 8.386358 -7.751977 -30.893825 -16.350039 -2.089700 -48.761932 -20.935232 6.848247 59.076842 -51.211619 -49.979522 19.490924 -6.647518 -23.621286 29.588557 18.674022 -1.468333 35.847594 26.260694 4.692982 -79.038762 42.452624 -73.512082 -13.941151 11.946967 -12.430398 
